<?xml version="1.0" encoding="UTF-8" standalone="no"?>
<!DOCTYPE svg  PUBLIC '-//W3C//DTD SVG 1.1//EN'  'http://www.w3.org/Graphics/SVG/1.1/DTD/svg11.dtd'>
<svg xmlns="http://www.w3.org/2000/svg" xml:space="preserve" height="135.03px" viewBox="0 0 135.035 135.031" width="135.04px" version="1.1" y="0px" x="0px" xmlns:xlink="http://www.w3.org/1999/xlink" enable-background="new 0 0 135.035 135.031">
<path id="bgColor00" d="m125.48 120.96l-0.004-88.43s0.063-3.817-1.75-5.784l-13.795-13.55v0.056c0.004 0.002 0.008 0.006 0.008 0.01-2.248-2.104-5.263-3.399-8.584-3.399h-67.698c-3.323 0-6.336 1.297-8.586 3.399 0.005-0.004 0.005-0.008 0.009-0.01l0.003-0.056-13.798 13.545c-1.812 1.967-1.749 5.784-1.749 5.784l-0.004 88.455 0.064-0.135c1.454 4.396 6.049 6.575 10.889 6.575h94.027c4.848 0 9.555-1.955 11.002-6.358l-0.05-0.1z" fill="#fff"/>
<linearGradient id="path2890_1_" y2="662.36" gradientUnits="userSpaceOnUse" x2="679.99" gradientTransform="translate(-612.27 -557.58)" y1="573.35" x1="679.99">
	<stop stop-color="#fff" stop-opacity="0" offset="0"/>
	<stop stop-color="#F1F1F1" stop-opacity=".0203" offset=".0925"/>
	<stop stop-color="#CBCBCB" stop-opacity=".059" offset=".2681"/>
	<stop stop-color="#8F8F8F" stop-opacity=".1119" offset=".5085"/>
	<stop stop-color="#3C3C3C" stop-opacity=".1762" offset=".801"/>
	<stop stop-opacity=".22" offset="1"/>
</linearGradient>
<path d="m101.55 12.094h-67.682c-5.069 0-10.358 4.285-10.358 10.36v67.681c0 6.146 5.289 10.361 10.358 10.361h67.682c5.987 0 10.362-5.379 10.362-10.361v-67.685c0-5.171-4.63-10.36-10.36-10.36zm6.46 33.102c-11.441 5.285-25.717 8.453-41.246 8.453-14.556 0-28.012-2.793-39.07-7.491v-21.668c0-2.515 0.979-4.88 2.758-6.658 1.776-1.778 4.139-2.757 6.651-2.757h61.491c2.519 0 4.88 0.979 6.656 2.757 1.778 1.778 2.759 4.142 2.759 6.658v20.706z" fill="url(#path2890_1_)"/>
<linearGradient id="path2897_1_" y2="665.81" gradientUnits="userSpaceOnUse" x2="679.98" gradientTransform="translate(-612.27 -557.58)" y1="562.33" x1="679.98">
	<stop stop-opacity=".25" offset=".118"/>
	<stop stop-opacity=".08" offset="1"/>
</linearGradient>
<path opacity=".9" d="m101.55 9.857h-67.682c-6.956 0-12.598 5.64-12.598 12.597v67.682c0 6.957 5.642 12.597 12.598 12.597h67.683c6.959 0 12.596-5.64 12.596-12.597v-67.679c-0.01-6.957-5.64-12.597-12.6-12.597zm10.36 80.278c0 5.713-4.648 10.361-10.361 10.361h-67.682c-5.711 0-10.358-4.648-10.358-10.361v-67.685c0-2.769 1.078-5.368 3.034-7.327 1.957-1.954 4.555-3.033 7.324-3.033h67.683c2.77 0 5.369 1.079 7.326 3.033 1.957 1.959 3.035 4.561 3.035 7.327v67.681z" enable-background="new    " fill="url(#path2897_1_)"/>
<path opacity=".8" d="m111.54 91.15c-1.258 4.396-5.267 7.436-10.188 7.436h-67.678c-4.813 0-8.45-3.229-9.951-7.018l-1.745 2.947c1.854 4.361 6.384 8.215 11.696 8.215h67.684c5.729 0 10.557-4.479 12.084-9.25l-1.9-2.33z" enable-background="new    " fill="#fff"/>
<linearGradient id="path2906_1_" y2="-584.23" gradientUnits="userSpaceOnUse" x2="967.9" gradientTransform="matrix(1 0 0 -1 -958.71 -517.01)" y1="-583.92" x1="986.31">
	<stop stop-opacity=".25" offset="0"/>
	<stop stop-opacity=".5" offset="1"/>
</linearGradient>
<path d="m21.075 90.135v-67.681c0-3.64 1.553-6.908 4.021-9.207l0.003-0.056-13.799 13.55c-1.812 1.967-1.749 5.784-1.749 5.784l-0.004 88.455 12.378-26.33c-0.54-1.402-0.85-2.921-0.85-4.515z" fill="url(#path2906_1_)"/>
<linearGradient id="path2913_1_" y2="-584.17" gradientUnits="userSpaceOnUse" x2="1399.2" gradientTransform="matrix(-1 0 0 -1 1521.5 -517.01)" y1="-583.86" x1="1417.6">
	<stop stop-opacity=".25" offset="0"/>
	<stop stop-opacity=".5" offset="1"/>
</linearGradient>
<path d="m113.95 22.454v67.682c0 1.595-0.308 3.112-0.847 4.517l12.375 26.33-0.004-88.455s0.062-3.818-1.75-5.785l-13.8-13.549v0.057c2.47 2.297 4.02 5.566 4.02 9.206z" fill="url(#path2913_1_)"/>
<linearGradient id="path2920_1_" y2="-653.76" gradientUnits="userSpaceOnUse" x2="1026.3" gradientTransform="matrix(1 0 0 -1 -958.71 -517.01)" y1="-618.79" x1="1026.3">
	<stop stop-opacity=".2" offset="0"/>
	<stop stop-opacity=".7" offset="1"/>
</linearGradient>
<path d="m20.5 127.42h94.027c4.848 0 9.504-2.063 10.951-6.469l-12.375-26.303c-1.818 4.724-6.39 8.078-11.75 8.078h-67.678c-5.363 0-9.93-3.356-11.747-8.08l-12.32 26.18c1.447 4.42 6.05 6.6 10.895 6.6z" fill="url(#path2920_1_)"/>
<path opacity=".8" enable-background="new    " d="m124.93 17.043c-1.457-4.389-5.564-7.564-10.4-7.564h-94.03c-6.049 0-10.973 4.965-10.973 11.066v15.332h0.023v-3.352s-0.063-3.818 1.749-5.785l13.798-13.551-0.003 0.057c-0.004 0.002-0.004 0.006-0.008 0.01 2.248-2.104 5.262-3.398 8.584-3.398h67.684c3.321 0 6.336 1.295 8.584 3.398 0-0.004-0.004-0.008-0.008-0.01v-0.057l13.795 13.551c1.813 1.967 1.75 5.785 1.75 5.785v3.705h0.023v-11.181l-0.56-8.006z"/>
	<path opacity=".2" d="m114.53 0h-94.03c-5.484 0-10.64 2.146-14.513 6.046-3.861 3.89-5.99 9.058-5.99 14.556v93.832c0 11.357 9.196 20.6 20.504 20.6h94.026c11.304 0 20.505-9.24 20.505-20.6v-93.828c-0.01-11.359-9.21-20.602-20.51-20.602zm14.91 114.43c0 8.291-6.678 15.01-14.914 15.01h-94.03c-8.238 0-14.914-6.719-14.914-15.01v-93.828c0-8.293 6.676-15.015 14.914-15.015h94.027c8.234 0 14.914 6.722 14.914 15.015v93.828z" enable-background="new    " fill="#B2B2B2"/>
	<path opacity=".4" d="m114.53 3.352h-94.03c-4.584 0-8.896 1.796-12.135 5.057-3.234 3.258-5.018 7.587-5.018 12.192v93.833c0 9.508 7.695 17.243 17.15 17.243h94.028c9.455 0 17.146-7.735 17.146-17.243v-93.828c0.01-9.513-7.69-17.25-17.14-17.25zm14.91 111.08c0 8.291-6.678 15.01-14.914 15.01h-94.03c-8.238 0-14.914-6.719-14.914-15.01v-93.828c0-8.293 6.676-15.015 14.914-15.015h94.027c8.234 0 14.914 6.722 14.914 15.015v93.828z" enable-background="new    " fill="#333"/>
	<path opacity=".5" d="m114.53 4.471h-94.03c-4.285 0-8.313 1.677-11.34 4.724-3.027 3.048-4.692 7.098-4.692 11.406v93.833c0 8.894 7.192 16.127 16.032 16.127h94.027c8.84 0 16.033-7.233 16.033-16.127v-93.828c0-8.894-7.19-16.131-16.03-16.131zm14.91 109.96c0 8.291-6.678 15.01-14.914 15.01h-94.03c-8.238 0-14.914-6.719-14.914-15.01v-93.828c0-8.293 6.676-15.015 14.914-15.015h94.027c8.234 0 14.914 6.722 14.914 15.015v93.828z" enable-background="new    " fill="#333"/>
<path opacity=".2" d="m114.53 5.536h-94.03c-8.238 0-14.914 6.72-14.914 15.012v93.833c0 8.292 6.676 15.01 14.914 15.01h94.027c8.234 0 14.914-6.719 14.914-15.01v-93.833c0-8.292-6.68-15.011-14.91-15.011zm7.03 112.78c0 3.928-3.152 7.125-7.025 7.125h-94.04c-3.877 0-7.029-3.197-7.029-7.125v-97.773c0-3.929 3.152-7.126 7.029-7.126h4.4c2.271-2.202 5.36-3.563 8.771-3.563h67.683c3.414 0 6.504 1.361 8.771 3.563h4.405c3.873 0 7.023 3.197 7.023 7.126v97.775h0.02z" enable-background="new    " fill="#4D4D4D"/>
<path opacity=".4" enable-background="new    " d="m114.53 5.536h-94.03c-8.238 0-14.914 6.718-14.914 15.01v93.837c0 8.29 6.676 15.008 14.914 15.008h94.027c8.234 0 14.914-6.719 14.914-15.008v-93.835c0-8.292-6.68-15.009-14.91-15.009zm8.99 111.87c0 5.016-4.037 9.094-8.998 9.094h-94.02c-4.963 0-9-4.078-9-9.094v-96.865c0-5.016 4.037-9.096 9-9.096h7.047c1.813-1.012 3.897-1.594 6.125-1.594h67.684c2.227 0 4.311 0.582 6.125 1.594h7.049c4.959 0 8.996 4.08 8.996 9.096v96.865h-0.01z"/>
<path opacity=".9" d="m114.53 5.536h-94.03c-8.234 0-14.914 6.718-14.914 15.01v93.837c0 8.29 6.676 15.008 14.914 15.008h94.027c8.234 0 14.914-6.719 14.914-15.008v-93.835c0-8.292-6.67-15.009-14.91-15.009zm10.97 110.82c0 6.102-4.924 11.063-10.973 11.063h-94.03c-6.049 0-10.973-4.963-10.973-11.063v-95.815c0-6.102 4.924-11.066 10.973-11.066h94.027c6.049 0 10.973 4.965 10.973 11.066v95.815z" enable-background="new    " fill="#333"/>
<path opacity=".5" d="m114.53 128.6h-94.03c-8.242 0-14.914-6.717-14.914-15.008v0.782c0 8.29 6.672 15.011 14.914 15.011h94.027c8.229 0 14.914-6.722 14.914-15.011v-0.782c0 8.3-6.68 15.01-14.91 15.01z" enable-background="new    " fill="#fff"/>
<path opacity=".2" d="m107.87 45.331c-11.441 5.285-25.717 8.453-41.246 8.453-14.556 0-28.012-2.793-39.07-7.49v-21.669c0-2.516 0.979-4.881 2.759-6.658 1.776-1.777 4.139-2.757 6.651-2.757h61.491c2.519 0 4.88 0.979 6.656 2.757 1.778 1.777 2.759 4.143 2.759 6.658v20.706z" fill="#fff"/>
</svg>
