<?xml version="1.0" encoding="UTF-8" standalone="no"?>
<!DOCTYPE svg  PUBLIC '-//W3C//DTD SVG 1.1//EN'  'http://www.w3.org/Graphics/SVG/1.1/DTD/svg11.dtd'>
<svg xmlns="http://www.w3.org/2000/svg" xml:space="preserve" height="135.03px" viewBox="0 0 540.141 135.031" width="540.14px" version="1.1" y="0px" x="0px" xmlns:xlink="http://www.w3.org/1999/xlink" enable-background="new 0 0 540.141 135.031">
<path id="bgColor00" d="m530.58 22.668s0.063-3.816-1.744-5.783l-13.8-13.549 0.004 0.053c0.004 0.004 0.004 0.008 0.006 0.01-2.26-2.104-5.27-3.399-8.59-3.399h-472.78c-3.323 0-6.338 1.295-8.586 3.398 0-0.002 0.004-0.006 0.008-0.01v-0.052l-13.793 13.549c-1.809 1.967-1.75 5.783-1.75 5.783l-0.004 88.455 0.004-0.004v3.682c0.219 5.906 5.036 10.645 10.951 10.645h499.12c5.916 0 10.732-4.736 10.955-10.645v-3.682 0.004-88.452z" fill="#fff"/>
<linearGradient id="path10735_1_" y2="590.18" gradientUnits="userSpaceOnUse" x2="641.91" gradientTransform="translate(-371.84 -496.13)" y1="499.04" x1="641.91">
	<stop stop-color="#fff" stop-opacity="0" offset="0"/>
	<stop stop-color="#C7C7C7" stop-opacity=".0433" offset=".1416"/>
	<stop stop-color="#8B8B8B" stop-opacity=".095" offset=".311"/>
	<stop stop-color="#5A5A5A" stop-opacity=".145" offset=".4744"/>
	<stop stop-color="#333" stop-opacity=".1917" offset=".6272"/>
	<stop stop-color="#171717" stop-opacity=".2344" offset=".7672"/>
	<stop stop-color="#060606" stop-opacity=".2719" offset=".8899"/>
	<stop stop-opacity=".3" offset=".9818"/>
</linearGradient>
<path opacity=".45" d="m519.06 80.277c0 6.957-5.641 12.594-12.602 12.594h-472.78c-6.957 0-12.599-5.637-12.599-12.594v-67.68c0.005-6.958 5.647-12.597 12.604-12.597h472.77c6.961 0 12.604 5.639 12.604 12.598v67.679z" enable-background="new    " fill="url(#path10735_1_)"/>
<path opacity=".4" d="m506.46 0h-472.78c-6.957 0-12.599 5.639-12.599 12.598v67.679c0 6.957 5.642 12.595 12.599 12.595h472.77c6.961 0 12.604-5.638 12.604-12.595v-67.679c0.01-6.959-5.63-12.598-12.59-12.598zm10.36 80.277c0 5.713-4.652 10.361-10.365 10.361h-472.78c-5.715 0-10.361-4.648-10.361-10.361v-67.68c0-2.768 1.08-5.371 3.033-7.328 1.955-1.955 4.558-3.033 7.328-3.033h472.77c2.771 0 5.373 1.078 7.33 3.033 1.957 1.957 3.035 4.561 3.035 7.328v67.68z" enable-background="new    " fill="#fff"/>
<path opacity=".2" d="m503.5 5.217h-466.58c-2.514 0-4.875 0.98-6.651 2.758-1.781 1.777-2.759 4.143-2.759 6.656v21.668c11.062 4.701 224.52 7.49 239.08 7.49 15.533 0 234.89-3.166 246.33-8.449v-20.709c0-2.514-0.977-4.879-2.758-6.656-1.78-1.778-4.14-2.758-6.66-2.758z" enable-background="new    " fill="#fff"/>
<path opacity=".8" d="m516.65 81.291c-1.257 4.398-5.267 7.434-10.189 7.434h-472.78c-4.813 0-8.451-3.227-9.957-7.014l-1.741 2.945c1.851 4.365 6.385 8.215 11.698 8.215h472.77c5.734 0 10.563-4.477 12.086-9.248l-1.89-2.332z" enable-background="new    " fill="#fff"/>
<linearGradient id="path10748_1_" y2="553.44" gradientUnits="userSpaceOnUse" x2="384.5" gradientTransform="translate(-371.84 -496.13)" y1="553.12" x1="402.91">
	<stop stop-opacity="0" offset="0"/>
	<stop stop-opacity=".7" offset="1"/>
</linearGradient>
<path d="m21.082 80.277v-67.68c0-3.643 1.553-6.908 4.02-9.209v-0.052l-13.795 13.549c-1.809 1.967-1.75 5.783-1.75 5.783l-0.004 88.455 12.379-26.332c-0.543-1.399-0.85-2.917-0.85-4.511z" fill="url(#path10748_1_)"/>
<linearGradient id="path10755_1_" y2="553.44" gradientUnits="userSpaceOnUse" x2="2172.5" gradientTransform="matrix(-1 0 0 1 2700 -496.13)" y1="553.12" x1="2190.9">
	<stop stop-opacity="0" offset="0"/>
	<stop stop-opacity=".7" offset="1"/>
</linearGradient>
<path d="m519.06 12.598v67.679c0 1.595-0.309 3.111-0.848 4.515l12.375 26.332-0.004-88.455s0.063-3.816-1.744-5.783l-13.801-13.55 0.004 0.053c2.47 2.304 4.02 5.57 4.02 9.213z" fill="url(#path10755_1_)"/>
<linearGradient id="path10762_1_" y2="622.69" gradientUnits="userSpaceOnUse" x2="641.91" gradientTransform="translate(-371.84 -496.13)" y1="579.3" x1="641.91">
	<stop stop-opacity="0" offset="0"/>
	<stop stop-opacity=".7" offset="1"/>
</linearGradient>
<path d="m518.21 84.791c-1.822 4.725-6.387 8.08-11.754 8.08h-472.78c-5.364 0-9.934-3.355-11.749-8.08l-12.372 26.329v3.684c0.219 5.906 5.036 10.645 10.951 10.645h499.12c5.916 0 10.732-4.736 10.955-10.645v-3.684l-12.37-26.329z" fill="url(#path10762_1_)"/>
		<path opacity=".2" d="m519.63 5.537h-2.283l5.461 5.361c0.646 0.521 1.248 1.117 1.777 1.65 0.271 0.275 0.516 0.621 0.738 0.992 0.455 0.709 0.754 1.523 0.938 2.309 0.258 0.949 0.4 1.914 0.4 2.727v95.803c0 3.928-3.156 7.125-7.033 7.125h-499.13c-3.878 0-7.028-3.197-7.028-7.125v-95.804c0-1.912 0.734-4.68 2.076-6.027 0.561-0.566 1.203-1.201 1.902-1.748l5.357-5.264h-2.307c-8.243 0-14.919 6.721-14.919 15.014v93.828c0 8.291 6.676 15.01 14.919 15.01h499.12c8.24 0 14.922-6.719 14.922-15.01v-93.829c0-8.293-6.68-15.014-14.92-15.014z" enable-background="new    " fill="#4D4D4D"/>
		<path opacity=".4" enable-background="new    " d="m519.63 5.537h-2.445l8.084 7.918-0.061 0.004c0.262 0.211 0.535 0.402 0.775 0.645 1.709 1.719 2.647 4.008 2.647 6.447v93.83c0 5.016-4.039 9.092-9.002 9.092h-499.12c-4.964 0-9.006-4.076-9.006-9.092v-93.83c0-2.393 0.917-4.633 2.567-6.342l-0.041-0.01 8.813-8.662h-2.333c-8.243 0-14.919 6.721-14.919 15.014v93.83c0 8.291 6.676 15.008 14.919 15.008h499.12c8.24 0 14.922-6.717 14.922-15.008v-93.83c0-8.292-6.68-15.013-14.92-15.013z"/>
		<path opacity=".9" d="m519.63 5.537h-2.434l4.121 4.109c2.284 0.354 4.397 1.391 6.061 3.066 2.086 2.092 3.225 4.875 3.225 7.838v93.83c0 6.103-4.918 11.063-10.973 11.063h-499.12c-6.05 0-10.973-4.963-10.973-11.063v-93.83c0-2.965 1.141-5.746 3.222-7.838 1.629-1.641 3.684-2.676 5.911-3.053l4.188-4.123h-2.348c-8.243 0-14.919 6.721-14.919 15.014v93.83c0 8.291 6.676 15.009 14.919 15.009h499.12c8.24 0 14.922-6.718 14.922-15.009v-93.83c0-8.292-6.68-15.013-14.92-15.013z" enable-background="new    " fill="#333"/>
		<path opacity=".5" d="m519.97 128.57h-499.12c-8.243 0-14.917-6.717-14.917-15.006v0.783c0 8.287 6.674 15.008 14.917 15.008h499.12c8.236 0 14.916-6.721 14.916-15.008v-0.783c0 8.29-6.68 15.01-14.92 15.01z" enable-background="new    " fill="#fff"/>
	<g fill="#333">
		<path opacity=".9" d="m9.557 22.668s-0.059-3.816 1.75-5.783l3.723-3.66c0.168-0.248 0.346-0.48 0.543-0.676 0.563-0.566 1.211-1.201 1.902-1.75l1.141-1.121c-2.196 0.385-4.227 1.41-5.842 3.035-2.076 2.092-3.221 4.873-3.221 7.838l0.004 2.117z" enable-background="new    "/>
		<path opacity=".9" d="m524.6 12.549c0.189 0.184 0.339 0.432 0.498 0.668l3.736 3.668c1.807 1.967 1.744 5.783 1.744 5.783l0.045-2.117c0-2.963-1.146-5.746-3.225-7.838-1.599-1.609-3.611-2.609-5.785-3.002l1.209 1.188c0.64 0.521 1.24 1.115 1.77 1.65z" enable-background="new    "/>
	</g>
<path opacity=".5" d="m519.63 4.471h-3.438l1.141 1.119h2.299c8.24 0 14.92 6.721 14.92 15.012v93.832c0 8.291-6.68 15.006-14.92 15.006h-499.12c-8.243 0-14.919-6.715-14.919-15.006v-93.828c0-8.291 6.676-15.012 14.919-15.012h2.302l1.139-1.119h-3.44c-4.286 0-8.316 1.68-11.344 4.725-3.026 3.049-4.694 7.1-4.694 11.406v93.832c0 8.895 7.197 16.127 16.038 16.127h499.12c8.842 0 16.039-7.232 16.039-16.127v-93.828c0-8.893-7.2-16.131-16.04-16.131z" enable-background="new    " fill="#333"/>
<path opacity=".2" d="m519.63 0h-13.174c3.326 0 6.336 1.295 8.59 3.398-0.002-0.002-0.002-0.006-0.006-0.01l-0.004-0.053 2.295 2.254h2.299c8.24 0 14.922 6.721 14.922 15.012v93.833c0 8.291-6.682 15.006-14.922 15.006h-499.13c-8.243 0-14.919-6.715-14.919-15.006v-93.828c0-8.291 6.676-15.012 14.919-15.012h2.302l2.295-2.254v0.053c-0.004 0.004-0.008 0.008-0.008 0.01 2.248-2.104 5.262-3.399 8.586-3.399h-13.175c-5.488 0-10.641 2.146-14.515 6.049-3.867 3.887-5.995 9.055-5.995 14.553v93.832c0 11.357 9.201 20.6 20.51 20.6h499.12c11.312 0 20.512-9.24 20.512-20.6v-93.828c0-11.36-9.2-20.602-20.51-20.602z" enable-background="new    " fill="#B2B2B2"/>
<g fill="#333">
	<path opacity=".4" d="m515.04 3.398c-0.002-0.002-0.002-0.006-0.006-0.01l-0.002-0.035h-0.045c0.03 0.016 0.05 0.03 0.06 0.045z" enable-background="new    "/>
	<path opacity=".4" d="m25.102 3.354v0.035c-0.004 0.004-0.008 0.008-0.008 0.01 0.018-0.016 0.035-0.029 0.053-0.045h-0.045z" enable-background="new    "/>
	<path opacity=".4" d="m519.63 3.354h-4.574l2.275 2.236h2.299c8.24 0 14.922 6.721 14.922 15.012v93.832c0 8.291-6.682 15.006-14.922 15.006h-499.13c-8.243 0-14.919-6.715-14.919-15.006v-93.828c0-8.291 6.676-15.012 14.919-15.012h2.302l2.275-2.236h-4.577c-4.589 0-8.896 1.795-12.136 5.057-3.24 3.256-5.018 7.586-5.018 12.191v93.832c0 9.508 7.696 17.244 17.153 17.244h499.12c9.457 0 17.154-7.736 17.154-17.244v-93.828c0-9.51-7.69-17.248-17.15-17.248z" enable-background="new    "/>
</g>
</svg>
