<?xml version="1.0" encoding="UTF-8" standalone="no"?>
<!DOCTYPE svg  PUBLIC '-//W3C//DTD SVG 1.1//EN'  'http://www.w3.org/Graphics/SVG/1.1/DTD/svg11.dtd'>
<svg xmlns="http://www.w3.org/2000/svg" xml:space="preserve" height="135.03px" viewBox="0 0 135.035 135.031" width="135.04px" version="1.1" y="0px" x="0px" xmlns:xlink="http://www.w3.org/1999/xlink" enable-background="new 0 0 135.035 135.031">
<path id="bgColor00" d="m125.48 22.669s0.063-3.816-1.744-5.785l-13.81-13.549 0.004 0.055c0.004 0.004 0.004 0.008 0.006 0.011-2.252-2.104-5.262-3.4-8.588-3.4h-67.672c-3.322 0-6.336 1.297-8.584 3.399 0-0.003 0.004-0.007 0.008-0.011v-0.054l-13.795 13.549c-1.81 1.97-1.75 5.785-1.75 5.785l-0.004 88.455 0.004-0.004v3.683c0.219 5.905 5.035 10.646 10.949 10.646h94.021c5.912 0 10.729-4.74 10.951-10.646v-3.683 0.004-88.451z" fill="#fff"/>
<linearGradient id="path2900_1_" y2="-576.96" gradientUnits="userSpaceOnUse" x2="722.27" gradientTransform="matrix(1 0 0 -1 -654.91 -470.94)" y1="-472.92" x1="722.27">
	<stop stop-color="#fff" stop-opacity="0" offset=".0818"/>
	<stop stop-color="#888" stop-opacity=".1041" offset=".5163"/>
	<stop stop-opacity=".22" offset="1"/>
</linearGradient>
<path d="m101.7 2.406h-67.682c-6.127 0-10.699 4.233-10.699 10.191v67.678c0 6.957 3.938 8.354 10.892 8.354h67.68c2.145 0 9.512-2.508 9.512-8.354v-67.679c0-5.016-2.75-10.19-9.7-10.19zm6.51 33.691c-11.44 5.282-25.717 8.45-41.247 8.45-14.552 0-28.009-2.789-39.066-7.491v-21.666c0-2.515 0.977-4.879 2.758-6.657 1.775-1.776 4.136-2.757 6.65-2.757h61.489c2.519 0 4.884 0.979 6.658 2.756 1.778 1.776 2.758 4.143 2.758 6.656v20.709z" fill="url(#path2900_1_)"/>
<path opacity=".2" d="m98.79 5.976h-61.489c-2.516 0-4.875 0.979-6.65 2.757-1.781 1.778-2.758 4.144-2.758 6.657v21.666c11.059 4.702 24.516 7.491 39.066 7.491 15.529 0 29.807-3.168 41.247-8.45v-20.709c0-2.515-0.979-4.88-2.758-6.656-1.78-1.776-4.14-2.756-6.66-2.756z" enable-background="new    " fill="#fff"/>
<path opacity=".18" d="m101.36-0.001h-67.682c-6.955 0-12.597 5.641-12.597 12.6v67.678c0 6.959 5.642 12.597 12.597 12.597h67.677c6.959 0 12.601-5.64 12.601-12.597v-67.679c0-6.959-5.65-12.599-12.6-12.599zm10.36 80.276c0 5.716-4.648 10.36-10.363 10.36h-67.682c-5.713 0-10.358-4.646-10.358-10.36v-67.677c0-2.768 1.079-5.371 3.032-7.328 1.955-1.956 4.558-3.033 7.326-3.033h67.677c2.771 0 5.371 1.077 7.328 3.033 1.957 1.957 3.034 4.562 3.034 7.328v67.677z" enable-background="new    " fill="#020202"/>
<linearGradient id="path2916_1_" y2="-528.17" gradientUnits="userSpaceOnUse" x2="666.14" gradientTransform="matrix(1 0 0 -1 -654.91 -470.94)" y1="-528.17" x1="681.88">
	<stop stop-opacity="0" offset="0"/>
	<stop offset="1"/>
</linearGradient>
<path opacity=".66" d="m21.082 80.275v-67.677c0-3.643 1.553-6.908 4.02-9.209v-0.054l-13.795 13.549c-1.809 1.97-1.75 5.785-1.75 5.785l-0.004 88.455 12.379-26.332c-0.543-1.397-0.85-2.916-0.85-4.513z" enable-background="new    " fill="url(#path2916_1_)"/>
<linearGradient id="path2923_1_" y2="1152" gradientUnits="userSpaceOnUse" x2="1189" gradientTransform="matrix(-1 0 0 1 1311.3 -1094.7)" y1="1151.7" x1="1207.4">
	<stop stop-opacity="0" offset="0"/>
	<stop offset="1"/>
</linearGradient>
<path opacity=".66" d="m113.96 12.598v67.679c0 1.596-0.309 3.113-0.848 4.516l12.373 26.33-0.004-88.453s0.063-3.816-1.744-5.784l-13.81-13.548 0.004 0.055c2.47 2.299 4.03 5.566 4.03 9.208z" enable-background="new    " fill="url(#path2923_1_)"/>
<linearGradient id="path2930_1_" y2="1231.3" gradientUnits="userSpaceOnUse" x2="1064.3" gradientTransform="translate(-996.8 -1094.7)" y1="1187.9" x1="1064.3">
	<stop stop-opacity=".18" offset="0"/>
	<stop offset="1"/>
</linearGradient>
<path d="m113.11 84.792c-1.822 4.726-6.385 8.08-11.752 8.08h-67.682c-5.363 0-9.933-3.354-11.746-8.08l-12.375 26.328v3.685c0.219 5.905 5.035 10.646 10.948 10.646h94.021c5.914 0 10.729-4.738 10.953-10.646v-3.685l-12.37-26.328z" fill="url(#path2930_1_)"/>
<path opacity=".51" d="m111.54 81.292c-1.256 4.396-5.264 7.433-10.188 7.433h-67.672c-4.813 0-9.875-1.644-10.242-6.525l-1.453 2.459c1.85 4.363 6.383 8.215 11.695 8.215h67.677c5.73 0 10.562-4.479 12.082-9.248l-1.9-2.334z" enable-background="new    " fill="#fff"/>
<path opacity=".2" d="m114.53 5.536h-2.283l5.461 5.361c0.645 0.522 1.246 1.119 1.775 1.649 0.27 0.275 0.516 0.621 0.734 0.992 0.454 0.709 0.758 1.523 0.939 2.311 0.259 0.947 0.398 1.914 0.398 2.728v95.801c0 3.929-3.154 7.125-7.031 7.125h-94.02c-3.877 0-7.027-3.196-7.027-7.125v-95.803c0-1.912 0.734-4.68 2.076-6.029 0.562-0.564 1.203-1.198 1.902-1.745l5.354-5.267h-2.308c-8.241 0-14.916 6.721-14.916 15.014v93.828c0 8.291 6.675 15.011 14.916 15.011h94.021c8.238 0 14.92-6.72 14.92-15.011v-93.83c0-8.293-6.67-15.014-14.91-15.014z" enable-background="new    " fill="#4D4D4D"/>
<path opacity=".4" enable-background="new    " d="m114.53 5.538h-2.445l8.082 7.918-0.061 0.004c0.262 0.211 0.535 0.401 0.771 0.646 1.709 1.719 2.647 4.006 2.647 6.444v93.83c0 5.017-4.037 9.095-9 9.095h-94.02c-4.963 0-9.004-4.078-9.004-9.095v-93.83c0-2.393 0.916-4.633 2.565-6.34l-0.041-0.01 8.812-8.662h-2.332c-8.242 0-14.916 6.719-14.916 15.012v93.83c0 8.291 6.674 15.009 14.916 15.009h94.021c8.238 0 14.918-6.718 14.918-15.009v-93.83c0-8.293-6.67-15.012-14.91-15.012z"/>
<path opacity=".9" d="m114.53 5.538h-2.438l4.12 4.108c2.285 0.353 4.397 1.39 6.063 3.064 2.086 2.094 3.225 4.875 3.225 7.838v93.83c0 6.103-4.918 11.065-10.971 11.065h-94.024c-6.049 0-10.971-4.965-10.971-11.065v-93.83c0-2.963 1.141-5.744 3.221-7.838 1.629-1.639 3.684-2.674 5.91-3.051l4.188-4.123h-2.348c-8.242 0-14.916 6.719-14.916 15.012v93.83c0 8.291 6.674 15.009 14.916 15.009h94.021c8.238 0 14.918-6.718 14.918-15.009v-93.83c-0.01-8.293-6.68-15.012-14.92-15.012z" enable-background="new    " fill="#333"/>
<path opacity=".5" d="m114.87 128.57h-94.024c-8.242 0-14.914-6.717-14.914-15.006v0.782c0 8.288 6.672 15.009 14.914 15.009h94.025c8.234 0 14.912-6.721 14.912-15.009v-0.782c0 8.29-6.68 15.01-14.91 15.01z" enable-background="new    " fill="#fff"/>
<g fill="#333">
	<path opacity=".9" d="m9.557 22.669s-0.06-3.816 1.75-5.785l3.723-3.659c0.168-0.247 0.346-0.48 0.543-0.677 0.563-0.565 1.211-1.199 1.902-1.75l1.141-1.12c-2.197 0.387-4.227 1.409-5.842 3.034-2.076 2.093-3.221 4.873-3.221 7.838l0.004 2.119z" enable-background="new    "/>
	<path opacity=".9" d="m119.5 12.548c0.189 0.187 0.338 0.434 0.498 0.67l3.736 3.666c1.807 1.97 1.744 5.785 1.744 5.785l0.045-2.119c0-2.961-1.146-5.744-3.229-7.838-1.597-1.606-3.606-2.606-5.778-3l1.209 1.188c0.65 0.521 1.25 1.115 1.78 1.648z" enable-background="new    "/>
</g>
<path opacity=".5" d="m114.53 4.471h-3.439l1.141 1.117h2.301c8.236 0 14.919 6.723 14.919 15.014v93.832c0 8.291-6.683 15.008-14.919 15.008h-94.022c-8.242 0-14.916-6.717-14.916-15.008v-93.828c0-8.291 6.674-15.014 14.916-15.014h2.301l1.139-1.117h-3.439c-4.283 0-8.313 1.68-11.342 4.726-3.023 3.049-4.691 7.098-4.691 11.405v93.832c0 8.896 7.193 16.127 16.033 16.127h94.021c8.842 0 16.037-7.231 16.037-16.127v-93.828c-0.01-8.894-7.2-16.131-16.04-16.131z" enable-background="new    " fill="#333"/>
<path opacity=".2" d="m114.53-0.001h-13.172c3.326 0 6.336 1.297 8.588 3.399-0.002-0.003-0.002-0.007-0.006-0.011l-0.004-0.054 2.295 2.254h2.299c8.238 0 14.918 6.722 14.918 15.013v93.832c0 8.291-6.68 15.006-14.918 15.006h-94.034c-8.242 0-14.916-6.715-14.916-15.006v-93.83c0-8.291 6.674-15.014 14.916-15.014h2.301l2.295-2.254v0.055c-0.004 0.004-0.008 0.008-0.008 0.011 2.248-2.102 5.261-3.398 8.584-3.398h-13.172c-5.486 0-10.639 2.146-14.512 6.049-3.867 3.889-5.994 9.057-5.994 14.554v93.831c0 11.356 9.199 20.602 20.506 20.602h94.021c11.307 0 20.508-9.24 20.508-20.602v-93.828c0-11.361-9.21-20.603-20.51-20.603z" enable-background="new    " fill="#B2B2B2"/>
<g fill="#333">
	<path opacity=".4" d="m109.94 3.398c-0.002-0.003-0.002-0.007-0.006-0.011l-0.002-0.034h-0.045c0.03 0.017 0.05 0.031 0.06 0.045z" enable-background="new    "/>
	<path opacity=".4" d="m25.102 3.354v0.034c-0.004 0.004-0.008 0.008-0.008 0.011 0.018-0.018 0.034-0.028 0.053-0.045h-0.045z" enable-background="new    "/>
	<path opacity=".4" d="m114.53 3.354h-4.574l2.275 2.234h2.299c8.238 0 14.918 6.722 14.918 15.013v93.833c0 8.291-6.68 15.006-14.918 15.006h-94.034c-8.242 0-14.916-6.715-14.916-15.006v-93.828c0-8.291 6.674-15.014 14.916-15.014h2.301l2.275-2.233h-4.576c-4.588 0-8.896 1.794-12.133 5.057-3.24 3.256-5.02 7.586-5.02 12.19v93.832c0 9.508 7.695 17.243 17.149 17.243h94.021c9.453 0 17.147-7.735 17.147-17.243v-93.828c0.01-9.511-7.69-17.248-17.14-17.248z" enable-background="new    "/>
</g>
</svg>
