<?xml version="1.0" encoding="UTF-8" standalone="no"?>
<!DOCTYPE svg  PUBLIC '-//W3C//DTD SVG 1.1//EN'  'http://www.w3.org/Graphics/SVG/1.1/DTD/svg11.dtd'>
<svg xmlns="http://www.w3.org/2000/svg" xml:space="preserve" height="135.03px" viewBox="0 0 270.07 135.032" width="270.07px" version="1.1" y="0px" x="0px" xmlns:xlink="http://www.w3.org/1999/xlink" enable-background="new 0 0 270.07 135.032">
<path id="bgColor00" d="m260.52 120.96l-0.004-88.43s0.061-3.818-1.75-5.785l-13.799-13.55v0.056c0.006 0.002 0.01 0.006 0.01 0.01-2.25-2.104-5.266-3.399-8.586-3.399h-202.71c-3.324 0-6.34 1.296-8.587 3.399 0.005-0.004 0.005-0.008 0.009-0.01l0.002-0.056-13.799 13.55c-1.813 1.967-1.75 5.785-1.75 5.785l-0.005 88.45 0.065-0.135c1.454 4.396 6.05 6.578 10.89 6.578h229.06c4.848 0 9.557-1.957 11.004-6.361l-0.04-0.1z" fill="#fff"/>
<linearGradient id="path4563_1_" y2="596.03" gradientUnits="userSpaceOnUse" x2="507.95" gradientTransform="translate(-371.84 -496.13)" y1="506.82" x1="507.95">
	<stop stop-color="#fff" stop-opacity="0" offset="0"/>
	<stop stop-color="#7A7A7A" stop-opacity=".1086" offset=".4937"/>
	<stop stop-color="#222" stop-opacity=".1854" offset=".8428"/>
	<stop stop-opacity=".22" offset="1"/>
</linearGradient>
<path d="m250.07 90.135c0 6.957-5.639 12.596-12.598 12.596h-202.71c-6.957 0-12.602-5.639-12.602-12.596v-67.68c0-6.957 5.645-12.597 12.602-12.597h202.71c6.959 0 12.598 5.64 12.598 12.597v67.681z" enable-background="new    " fill="url(#path4563_1_)"/>
<path opacity=".4" d="m236.39 9.857h-202.71c-6.957 0-12.602 5.64-12.602 12.597v67.681c0 6.957 5.645 12.597 12.602 12.597h202.71c6.959 0 12.598-5.64 12.598-12.597v-67.679c0-6.957-5.64-12.597-12.6-12.597zm10.36 80.278c0 5.713-4.648 10.361-10.361 10.361h-202.71c-5.712 0-10.361-4.648-10.361-10.361v-67.685c0-2.768 1.08-5.368 3.035-7.327 1.957-1.954 4.556-3.033 7.326-3.033h202.71c2.77 0 5.369 1.079 7.326 3.033 1.957 1.959 3.035 4.56 3.035 7.327l-0.01 67.681z" enable-background="new    " fill="#fff"/>
<path opacity=".2" d="m233.43 15.074h-196.52c-2.515 0-4.876 0.979-6.652 2.757-1.778 1.779-2.761 4.143-2.761 6.658v21.668c11.063 4.699 94.521 7.491 109.08 7.491 15.532 0 94.828-3.167 106.27-8.452v-20.707c0-2.516-0.98-4.879-2.762-6.658-1.78-1.778-4.14-2.757-6.66-2.757z" enable-background="new    " fill="#fff"/>
<path opacity=".8" d="m246.58 91.15c-1.258 4.397-5.268 7.437-10.188 7.437h-202.71c-4.814 0-8.451-3.229-9.953-7.018l-1.744 2.947c1.854 4.363 6.383 8.215 11.697 8.215h202.71c5.73 0 10.557-4.479 12.088-9.25l-1.9-2.33z" enable-background="new    " fill="#fff"/>
<linearGradient id="path4576_1_" y2="563.29" gradientUnits="userSpaceOnUse" x2="384.5" gradientTransform="translate(-371.84 -496.13)" y1="562.98" x1="402.91">
	<stop stop-opacity="0" offset="0"/>
	<stop stop-opacity=".7" offset="1"/>
</linearGradient>
<path d="m21.078 90.135v-67.681c0-3.64 1.553-6.908 4.021-9.207l0.003-0.056-13.798 13.55c-1.813 1.967-1.749 5.785-1.749 5.785l-0.005 88.454 12.38-26.33c-0.542-1.403-0.852-2.921-0.852-4.515z" fill="url(#path4576_1_)"/>
<linearGradient id="path4583_1_" y2="563.29" gradientUnits="userSpaceOnUse" x2="1921.1" gradientTransform="matrix(-1 0 0 1 2178.5 -496.13)" y1="562.98" x1="1939.5">
	<stop stop-opacity="0" offset="0"/>
	<stop stop-opacity=".7" offset="1"/>
</linearGradient>
<path d="m248.99 22.454v67.681c0 1.595-0.307 3.111-0.846 4.517l12.377 26.33-0.004-88.455s0.061-3.818-1.75-5.785l-13.799-13.55v0.056c2.46 2.299 4.02 5.568 4.02 9.208z" fill="url(#path4583_1_)"/>
<linearGradient id="path4590_1_" y2="626.9" gradientUnits="userSpaceOnUse" x2="506.92" gradientTransform="translate(-371.84 -496.13)" y1="591.93" x1="506.92">
	<stop stop-opacity="0" offset="0"/>
	<stop stop-opacity=".7" offset="1"/>
</linearGradient>
<path d="m20.506 127.42h229.06c4.848 0 9.557-1.957 11.004-6.361l-12.43-26.409c-1.818 4.723-6.391 8.08-11.752 8.08h-202.71c-5.365 0-9.933-3.357-11.749-8.08l-12.321 26.18c1.447 4.41 6.049 6.59 10.896 6.59z" fill="url(#path4590_1_)"/>
<path opacity=".8" enable-background="new    " d="m249.56 9.479h-229.05c-6.05 0-10.974 4.965-10.974 11.066v15.332h0.022v-3.352s-0.063-3.818 1.75-5.785l13.799-13.55-0.002 0.056c-0.004 0.002-0.004 0.006-0.01 0.01 2.248-2.104 5.264-3.399 8.588-3.399h202.71c3.32 0 6.336 1.296 8.586 3.399 0-0.004-0.006-0.008-0.01-0.01v-0.056l13.799 13.55c1.811 1.967 1.75 5.785 1.75 5.785v3.706h0.023v-11.182l-0.572-8.006c-1.46-4.388-5.57-7.564-10.41-7.564z"/>
	<path opacity=".2" d="m249.56 0h-229.05c-5.489 0-10.646 2.146-14.52 6.046-3.862 3.89-5.99 9.058-5.99 14.555v93.833c0 11.355 9.197 20.598 20.506 20.598h229.06c11.305 0 20.506-9.24 20.506-20.598v-93.829c-0.01-11.358-9.21-20.601-20.52-20.601zm14.92 114.43c0 8.291-6.682 15.01-14.916 15.01h-229.05c-8.238 0-14.916-6.719-14.916-15.01v-93.829c0-8.293 6.678-15.014 14.916-15.014h229.06c8.234 0 14.916 6.721 14.916 15.014l-0.01 93.829z" enable-background="new    " fill="#B2B2B2"/>
	<path opacity=".4" d="m249.56 3.352h-229.05c-4.585 0-8.896 1.796-12.136 5.057-3.235 3.258-5.019 7.587-5.019 12.192v93.833c0 9.507 7.695 17.244 17.152 17.244h229.06c9.459 0 17.148-7.737 17.148-17.244v-93.829c-0.01-9.512-7.7-17.249-17.16-17.249zm14.92 111.08c0 8.291-6.682 15.01-14.916 15.01h-229.05c-8.238 0-14.916-6.719-14.916-15.01v-93.829c0-8.293 6.678-15.014 14.916-15.014h229.06c8.234 0 14.916 6.721 14.916 15.014l-0.01 93.829z" enable-background="new    " fill="#333"/>
	<path opacity=".5" d="m249.56 4.471h-229.05c-4.284 0-8.313 1.677-11.341 4.725-3.026 3.047-4.692 7.097-4.692 11.405v93.833c0 8.893 7.191 16.127 16.033 16.127h229.06c8.842 0 16.035-7.234 16.035-16.127v-93.829c0-8.893-7.19-16.13-16.04-16.13zm14.92 109.96c0 8.291-6.682 15.01-14.916 15.01h-229.05c-8.238 0-14.916-6.719-14.916-15.01v-93.829c0-8.293 6.678-15.014 14.916-15.014h229.06c8.234 0 14.916 6.721 14.916 15.014l-0.01 93.829z" enable-background="new    " fill="#333"/>
<path opacity=".2" d="m249.56 5.536h-229.05c-8.238 0-14.916 6.72-14.916 15.012v93.833c0 8.291 6.678 15.011 14.916 15.011h229.06c8.234 0 14.916-6.72 14.916-15.011v-93.833c-0.01-8.292-6.69-15.011-14.93-15.011zm7.03 112.78c0 3.928-3.15 7.125-7.025 7.125h-229.05c-3.878 0-7.029-3.197-7.029-7.125v-97.773c0-3.929 3.151-7.126 7.029-7.126h4.401c2.271-2.202 5.361-3.564 8.772-3.564h202.71c3.412 0 6.504 1.362 8.771 3.564h4.404c3.875 0 7.025 3.197 7.025 7.126v97.776h0.01z" enable-background="new    " fill="#4D4D4D"/>
<path opacity=".4" enable-background="new    " d="m249.56 5.536h-229.05c-8.238 0-14.916 6.718-14.916 15.01v93.837c0 8.289 6.678 15.009 14.916 15.009h229.06c8.234 0 14.916-6.72 14.916-15.009v-93.835c-0.01-8.292-6.69-15.009-14.93-15.009zm9 111.87c0 5.016-4.039 9.094-9 9.094h-229.05c-4.964 0-9.002-4.078-9.002-9.094v-96.865c0-5.016 4.038-9.096 9.002-9.096h7.049c1.813-1.011 3.897-1.593 6.127-1.593h202.71c2.227 0 4.311 0.582 6.125 1.593h7.051c4.961 0 9 4.08 9 9.096l-0.01 96.865z"/>
<path opacity=".9" d="m249.56 5.536h-229.05c-8.234 0-14.916 6.718-14.916 15.01v93.837c0 8.289 6.678 15.009 14.916 15.009h229.06c8.234 0 14.916-6.72 14.916-15.009v-93.835c-0.01-8.292-6.69-15.009-14.93-15.009zm10.98 110.82c0 6.103-4.924 11.065-10.975 11.065h-229.05c-6.05 0-10.974-4.963-10.974-11.065v-95.815c0-6.102 4.924-11.066 10.974-11.066h229.06c6.051 0 10.975 4.965 10.975 11.066v95.815z" enable-background="new    " fill="#333"/>
<path opacity=".5" d="m249.56 128.61h-229.05c-8.242 0-14.916-6.718-14.916-15.009v0.784c0 8.291 6.674 15.01 14.916 15.01h229.06c8.23 0 14.916-6.719 14.916-15.01v-0.784c-0.01 8.29-6.69 15.01-14.93 15.01z" enable-background="new    " fill="#fff"/>
</svg>
