<?xml version="1.0" encoding="UTF-8" standalone="no"?>
<!DOCTYPE svg  PUBLIC '-//W3C//DTD SVG 1.1//EN'  'http://www.w3.org/Graphics/SVG/1.1/DTD/svg11.dtd'>
<svg xmlns="http://www.w3.org/2000/svg" xml:space="preserve" height="135.03px" viewBox="0 0 270.07 135.031" width="270.07px" version="1.1" y="0px" x="0px" xmlns:xlink="http://www.w3.org/1999/xlink" enable-background="new 0 0 270.07 135.031">
<path id="bgColor00" d="m260.51 22.67s0.063-3.816-1.742-5.785l-13.8-13.549 0.006 0.053c0.004 0.004 0.004 0.008 0.006 0.012-2.252-2.104-5.266-3.4-8.59-3.4h-202.72c-3.323 0-6.337 1.297-8.584 3.4 0-0.004 0.003-0.008 0.007-0.012v-0.053l-13.794 13.549c-1.811 1.969-1.75 5.785-1.75 5.785l-0.003 88.453 0.003-0.002v3.682c0.219 5.906 5.033 10.646 10.948 10.646h229.05c5.914 0 10.73-4.738 10.955-10.646v-3.682 0.002l-0.01-88.45z" fill="#fff"/>
<linearGradient id="path3629_1_" y2="720.23" gradientUnits="userSpaceOnUse" x2="639.95" gradientTransform="translate(-503.84 -628.13)" y1="632.92" x1="639.95">
	<stop stop-color="#fff" stop-opacity="0" offset="0"/>
	<stop stop-color="#7A7A7A" stop-opacity=".1086" offset=".4937"/>
	<stop stop-color="#222" stop-opacity=".1854" offset=".8428"/>
	<stop stop-opacity=".22" offset="1"/>
</linearGradient>
<path d="m250.07 80.279c0 6.957-5.641 12.594-12.602 12.594h-202.71c-6.956 0-12.6-5.637-12.6-12.594v-67.679c0-6.961 5.644-12.6 12.6-12.6h202.7c6.961 0 12.602 5.639 12.602 12.6l0.01 67.679z" enable-background="new    " fill="url(#path3629_1_)"/>
<path opacity=".4" d="m236.39 0h-202.71c-6.956 0-12.6 5.639-12.6 12.6v67.679c0 6.957 5.644 12.595 12.6 12.595h202.7c6.961 0 12.602-5.638 12.602-12.595v-67.679c0.01-6.961-5.63-12.6-12.59-12.6zm10.36 80.279c0 5.713-4.648 10.359-10.363 10.359h-202.71c-5.716 0-10.361-4.646-10.361-10.359v-67.679c0-2.768 1.081-5.371 3.034-7.328 1.955-1.957 4.557-3.033 7.327-3.033h202.7c2.77 0 5.371 1.076 7.328 3.033s3.035 4.561 3.035 7.328v67.679h0.01z" enable-background="new    " fill="#fff"/>
<path opacity=".2" d="m233.43 5.219h-196.52c-2.515 0-4.876 0.98-6.648 2.756-1.782 1.779-2.761 4.143-2.761 6.658v21.666c11.062 4.703 94.521 7.492 109.07 7.492 15.531 0 94.827-3.166 106.27-8.449v-20.709c0-2.516-0.979-4.879-2.762-6.658-1.77-1.776-4.13-2.756-6.65-2.756z" enable-background="new    " fill="#fff"/>
<path opacity=".8" d="m246.58 81.293c-1.256 4.398-5.266 7.434-10.188 7.434h-202.71c-4.813 0-8.45-3.227-9.957-7.014l-1.74 2.945c1.85 4.365 6.384 8.215 11.697 8.215h202.7c5.732 0 10.563-4.477 12.086-9.25l-1.89-2.33z" enable-background="new    " fill="#fff"/>
<linearGradient id="path3642_1_" y2="685.44" gradientUnits="userSpaceOnUse" x2="516.5" gradientTransform="translate(-503.84 -628.13)" y1="685.12" x1="534.91">
	<stop stop-opacity="0" offset="0"/>
	<stop stop-opacity=".7" offset="1"/>
</linearGradient>
<path d="m21.082 80.279v-67.679c0-3.643 1.553-6.908 4.021-9.211v-0.053l-13.796 13.549c-1.811 1.969-1.75 5.785-1.75 5.785l-0.004 88.453 12.38-26.33c-0.543-1.399-0.851-2.917-0.851-4.511z" fill="url(#path3642_1_)"/>
<linearGradient id="path3649_1_" y2="685.44" gradientUnits="userSpaceOnUse" x2="2051.3" gradientTransform="matrix(-1 0 0 1 2308.7 -628.13)" y1="685.12" x1="2069.7">
	<stop stop-opacity="0" offset="0"/>
	<stop stop-opacity=".7" offset="1"/>
</linearGradient>
<path d="m248.99 12.6v67.679c0 1.595-0.307 3.111-0.848 4.515l12.375 26.33-0.004-88.453s0.063-3.816-1.744-5.785l-13.803-13.55 0.006 0.053c2.45 2.306 4 5.572 4 9.215z" fill="url(#path3649_1_)"/>
<linearGradient id="path3656_1_" y2="755.69" gradientUnits="userSpaceOnUse" x2="638.87" gradientTransform="translate(-503.84 -628.13)" y1="712.31" x1="638.87">
	<stop stop-opacity="0" offset="0"/>
	<stop stop-opacity=".7" offset="1"/>
</linearGradient>
<path d="m248.14 84.793c-1.822 4.725-6.387 8.08-11.754 8.08h-202.71c-5.364 0-9.936-3.355-11.748-8.08l-12.373 26.327v3.684c0.219 5.906 5.033 10.646 10.948 10.646h229.05c5.914 0 10.73-4.738 10.955-10.646v-3.684l-12.38-26.327z" fill="url(#path3656_1_)"/>
		<path opacity=".2" d="m249.56 5.537h-2.283l5.461 5.361c0.645 0.523 1.246 1.119 1.777 1.65 0.27 0.275 0.514 0.623 0.734 0.994 0.455 0.709 0.754 1.523 0.941 2.309 0.26 0.949 0.4 1.914 0.4 2.727v95.801c0 3.928-3.156 7.125-7.033 7.125h-229.05c-3.878 0-7.026-3.197-7.026-7.125v-95.802c0-1.912 0.732-4.68 2.076-6.029 0.561-0.566 1.201-1.199 1.9-1.746l5.356-5.266h-2.309c-8.241 0-14.918 6.721-14.918 15.014v93.828c0 8.291 6.677 15.012 14.918 15.012h229.05c8.238 0 14.92-6.721 14.92-15.012v-93.829c0-8.293-6.68-15.014-14.92-15.014z" enable-background="new    " fill="#4D4D4D"/>
		<path opacity=".4" enable-background="new    " d="m249.56 5.539h-2.445l8.082 7.918-0.063 0.004c0.264 0.211 0.535 0.402 0.775 0.645 1.711 1.719 2.65 4.006 2.65 6.445v93.83c0 5.016-4.039 9.094-9.002 9.094h-229.06c-4.964 0-9.005-4.078-9.005-9.094v-93.83c0-2.393 0.916-4.633 2.566-6.34l-0.041-0.01 8.812-8.662h-2.332c-8.241 0-14.918 6.719-14.918 15.012v93.83c0 8.291 6.677 15.01 14.918 15.01h229.05c8.238 0 14.92-6.719 14.92-15.01v-93.83c0-8.292-6.68-15.011-14.92-15.011z"/>
		<path opacity=".9" d="m249.56 5.539h-2.436l4.121 4.109c2.285 0.352 4.398 1.389 6.063 3.064 2.086 2.092 3.225 4.877 3.225 7.838v93.83c0 6.103-4.92 11.065-10.973 11.065h-229.04c-6.05 0-10.972-4.965-10.972-11.065v-93.83c0-2.963 1.143-5.746 3.221-7.838 1.631-1.639 3.686-2.674 5.91-3.051l4.188-4.123h-2.35c-8.241 0-14.918 6.719-14.918 15.012v93.83c0 8.291 6.677 15.011 14.918 15.011h229.05c8.238 0 14.92-6.72 14.92-15.011v-93.83c0-8.292-6.68-15.011-14.92-15.011z" enable-background="new    " fill="#333"/>
		<path opacity=".5" d="m249.9 128.57h-229.05c-8.243 0-14.916-6.717-14.916-15.008v0.785c0 8.289 6.673 15.008 14.916 15.008h229.06c8.236 0 14.914-6.719 14.914-15.008v-0.785c0 8.29-6.68 15.01-14.92 15.01z" enable-background="new    " fill="#fff"/>
	<g fill="#333">
		<path opacity=".9" d="m9.557 22.67s-0.061-3.816 1.75-5.785l3.723-3.66c0.168-0.246 0.346-0.48 0.543-0.676 0.563-0.566 1.211-1.199 1.902-1.748l1.141-1.123c-2.197 0.387-4.226 1.41-5.842 3.035-2.076 2.092-3.221 4.875-3.221 7.838l0.004 2.119z" enable-background="new    "/>
		<path opacity=".9" d="m254.53 12.549c0.191 0.186 0.338 0.432 0.498 0.67l3.738 3.666c1.807 1.969 1.742 5.785 1.742 5.785l0.047-2.119c0-2.961-1.146-5.746-3.227-7.838-1.598-1.607-3.613-2.607-5.785-3l1.209 1.186c0.65 0.523 1.25 1.117 1.78 1.65z" enable-background="new    "/>
	</g>
<path opacity=".5" d="m249.56 4.471h-3.438l1.141 1.119h2.299c8.238 0 14.92 6.721 14.92 15.012v93.832c0 8.291-6.682 15.008-14.92 15.008h-229.05c-8.241 0-14.918-6.717-14.918-15.008v-93.828c0-8.291 6.677-15.012 14.918-15.012h2.303l1.139-1.119h-3.44c-4.283 0-8.313 1.68-11.344 4.727-3.023 3.049-4.692 7.098-4.692 11.404v93.832c0 8.895 7.195 16.127 16.036 16.127h229.05c8.842 0 16.039-7.232 16.039-16.127v-93.828c0-8.893-7.2-16.131-16.04-16.131z" enable-background="new    " fill="#333"/>
<path opacity=".2" d="m249.56 0h-13.174c3.324 0 6.338 1.297 8.59 3.4-0.002-0.004-0.002-0.008-0.006-0.012l-0.006-0.053 2.297 2.254h2.299c8.238 0 14.92 6.721 14.92 15.012v93.833c0 8.291-6.682 15.008-14.92 15.008h-229.05c-8.241 0-14.918-6.717-14.918-15.008v-93.828c0-8.291 6.677-15.012 14.918-15.012h2.303l2.296-2.254v0.053c-0.006 0.004-0.009 0.008-0.009 0.012 2.246-2.104 5.259-3.401 8.583-3.401h-13.174c-5.488 0-10.64 2.146-14.514 6.049-3.868 3.889-5.995 9.056-5.995 14.553v93.832c0 11.357 9.2 20.6 20.509 20.6h229.05c11.309 0 20.51-9.24 20.51-20.6v-93.828c0-11.36-9.2-20.602-20.51-20.602z" enable-background="new    " fill="#B2B2B2"/>
<g fill="#333">
	<path opacity=".4" d="m244.98 3.4c-0.002-0.004-0.002-0.008-0.006-0.012l-0.004-0.033h-0.045c0.02 0.016 0.04 0.03 0.06 0.045z" enable-background="new    "/>
	<path opacity=".4" d="m25.102 3.355v0.033c-0.003 0.004-0.01 0.008-0.01 0.012 0.02-0.016 0.035-0.029 0.055-0.045h-0.045z" enable-background="new    "/>
	<path opacity=".4" d="m249.56 3.355h-4.574l2.273 2.234h2.301c8.238 0 14.92 6.721 14.92 15.012v93.833c0 8.291-6.682 15.008-14.92 15.008h-229.05c-8.241 0-14.918-6.717-14.918-15.008v-93.828c0-8.291 6.677-15.012 14.918-15.012h2.303l2.274-2.234h-4.577c-4.589 0-8.896 1.793-12.135 5.055-3.241 3.258-5.019 7.586-5.019 12.191v93.832c0 9.51 7.695 17.244 17.151 17.244h229.05c9.457 0 17.15-7.734 17.15-17.244v-93.828c0-9.51-7.69-17.247-17.15-17.247z" enable-background="new    "/>
</g>
</svg>
