<?xml version="1.0" encoding="UTF-8" standalone="no"?>
<!DOCTYPE svg  PUBLIC '-//W3C//DTD SVG 1.1//EN'  'http://www.w3.org/Graphics/SVG/1.1/DTD/svg11.dtd'>
<svg xmlns="http://www.w3.org/2000/svg" xml:space="preserve" height="135.03px" viewBox="0 0 540.141 135.031" width="540.14px" version="1.1" y="0px" x="0px" xmlns:xlink="http://www.w3.org/1999/xlink" enable-background="new 0 0 540.141 135.031">
<path id="bgColor00" d="m530.59 120.96l-0.004-88.43s0.063-3.818-1.748-5.785l-13.799-13.549v0.055c0.004 0.002 0.008 0.006 0.008 0.01-2.248-2.104-5.264-3.398-8.586-3.398h-472.78c-3.324 0-6.338 1.295-8.587 3.398 0.004-0.004 0.004-0.008 0.008-0.01l0.003-0.055-13.799 13.544c-1.812 1.967-1.749 5.785-1.749 5.785l-0.004 88.455 0.065-0.135c1.454 4.396 6.05 6.576 10.89 6.576h499.13c4.849 0 9.558-1.956 11.002-6.359l-0.05-0.1z" fill="#fff"/>
<linearGradient id="path11395_1_" y2="596.72" gradientUnits="userSpaceOnUse" x2="642.99" gradientTransform="translate(-371.84 -496.13)" y1="506.18" x1="642.99">
	<stop stop-color="#fff" stop-opacity="0" offset="0"/>
	<stop stop-color="#C7C7C7" stop-opacity=".0433" offset=".1416"/>
	<stop stop-color="#8B8B8B" stop-opacity=".095" offset=".311"/>
	<stop stop-color="#5A5A5A" stop-opacity=".145" offset=".4744"/>
	<stop stop-color="#333" stop-opacity=".1917" offset=".6272"/>
	<stop stop-color="#171717" stop-opacity=".2344" offset=".7672"/>
	<stop stop-color="#060606" stop-opacity=".2719" offset=".8899"/>
	<stop stop-opacity=".3" offset=".9818"/>
</linearGradient>
<path opacity=".45" d="m520.14 90.135c0 6.957-5.637 12.596-12.598 12.596h-472.77c-6.957 0-12.6-5.639-12.6-12.596v-67.681c0-6.957 5.643-12.596 12.6-12.596h472.78c6.961 0 12.598 5.639 12.598 12.596v67.682z" enable-background="new    " fill="url(#path11395_1_)"/>
<path opacity=".4" d="m506.46 9.857h-472.78c-6.957 0-12.6 5.639-12.6 12.596v67.682c0 6.957 5.643 12.596 12.6 12.596h472.78c6.961 0 12.598-5.639 12.598-12.596v-67.681c0-6.957-5.64-12.596-12.6-12.596zm10.36 80.278c0 5.713-4.65 10.361-10.365 10.361h-472.78c-5.711 0-10.361-4.648-10.361-10.361v-67.686c0-2.768 1.079-5.369 3.035-7.327 1.959-1.954 4.557-3.033 7.326-3.033h472.78c2.77 0 5.371 1.079 7.328 3.033 1.957 1.958 3.037 4.56 3.037 7.327l-0.01 67.682z" enable-background="new    " fill="#fff"/>
<path opacity=".2" d="m503.5 15.073h-466.58c-2.515 0-4.877 0.979-6.655 2.757-1.778 1.779-2.759 4.143-2.759 6.658v21.668c11.063 4.699 230.52 7.49 245.08 7.49 15.533 0 228.89-3.166 240.34-8.451v-20.707c0-2.516-0.979-4.879-2.76-6.658-1.79-1.777-4.15-2.757-6.67-2.757z" enable-background="new    " fill="#fff"/>
<path opacity=".8" d="m516.65 91.15c-1.259 4.396-5.269 7.434-10.189 7.434h-472.78c-4.814 0-8.451-3.229-9.953-7.016l-1.746 2.947c1.855 4.361 6.386 8.215 11.699 8.215h472.78c5.732 0 10.559-4.479 12.088-9.25l-1.9-2.33z" enable-background="new    " fill="#fff"/>
<linearGradient id="path11408_1_" y2="563.29" gradientUnits="userSpaceOnUse" x2="384.5" gradientTransform="translate(-371.84 -496.13)" y1="562.98" x1="402.91">
	<stop stop-opacity="0" offset="0"/>
	<stop stop-opacity=".7" offset="1"/>
</linearGradient>
<path d="m21.078 90.135v-67.682c0-3.64 1.553-6.908 4.02-9.207l0.003-0.055-13.798 13.549c-1.812 1.967-1.749 5.785-1.749 5.785l-0.004 88.455 12.378-26.33c-0.54-1.404-0.85-2.921-0.85-4.515z" fill="url(#path11408_1_)"/>
<linearGradient id="path11415_1_" y2="563.29" gradientUnits="userSpaceOnUse" x2="2173.2" gradientTransform="matrix(-1 0 0 1 2700.7 -496.13)" y1="562.98" x1="2191.6">
	<stop stop-opacity="0" offset="0"/>
	<stop stop-opacity=".7" offset="1"/>
</linearGradient>
<path d="m519.06 22.453v67.682c0 1.594-0.305 3.111-0.846 4.516l12.377 26.33-0.004-88.455s0.063-3.818-1.748-5.785l-13.799-13.549v0.055c2.46 2.299 4.02 5.567 4.02 9.207z" fill="url(#path11415_1_)"/>
<linearGradient id="path11422_1_" y2="623.9" gradientUnits="userSpaceOnUse" x2="641.96" gradientTransform="translate(-371.84 -496.13)" y1="588.93" x1="641.96">
	<stop stop-opacity="0" offset="0"/>
	<stop stop-opacity=".7" offset="1"/>
</linearGradient>
<path d="m20.507 127.42h499.13c4.849 0 9.558-1.956 11.002-6.361l-12.43-26.41c-1.816 4.723-6.387 8.08-11.752 8.08h-472.78c-5.364 0-9.931-3.357-11.75-8.08l-12.32 26.18c1.447 4.41 6.05 6.59 10.897 6.59z" fill="url(#path11422_1_)"/>
<path opacity=".8" enable-background="new    " d="m519.64 9.479h-499.13c-6.05 0-10.974 4.965-10.974 11.066v15.332h0.022v-3.352s-0.063-3.818 1.749-5.785l13.801-13.549-0.003 0.055c-0.004 0.002-0.004 0.006-0.008 0.01 2.249-2.104 5.263-3.398 8.587-3.398h472.77c3.324 0 6.338 1.295 8.586 3.398 0-0.004-0.004-0.008-0.006-0.01v-0.055l13.797 13.549c1.811 1.967 1.75 5.785 1.75 5.785v3.707h0.025v-11.183l-0.572-8.006c-1.45-4.389-5.56-7.564-10.39-7.564z"/>
	<path opacity=".2" d="m519.64 0h-499.13c-5.489 0-10.645 2.146-14.519 6.046-3.862 3.89-5.991 9.058-5.991 14.555v93.833c0 11.356 9.198 20.6 20.507 20.6h499.13c11.306 0 20.506-9.241 20.506-20.6v-93.829c-0.01-11.359-9.21-20.601-20.51-20.601zm14.91 114.43c0 8.291-6.68 15.01-14.916 15.01h-499.12c-8.239 0-14.917-6.719-14.917-15.01v-93.829c0-8.293 6.678-15.014 14.917-15.014h499.13c8.236 0 14.916 6.721 14.916 15.014v93.829z" enable-background="new    " fill="#B2B2B2"/>
	<path opacity=".4" d="m519.64 3.352h-499.13c-4.585 0-8.896 1.797-12.136 5.057-3.236 3.258-5.02 7.587-5.02 12.192v93.833c0 9.508 7.698 17.244 17.155 17.244h499.13c9.459 0 17.15-7.736 17.15-17.244v-93.829c0-9.512-7.7-17.249-17.15-17.249zm14.91 111.08c0 8.291-6.68 15.01-14.916 15.01h-499.12c-8.239 0-14.917-6.719-14.917-15.01v-93.829c0-8.293 6.678-15.014 14.917-15.014h499.13c8.236 0 14.916 6.721 14.916 15.014v93.829z" enable-background="new    " fill="#333"/>
	<path opacity=".5" d="m519.64 4.471h-499.13c-4.286 0-8.313 1.678-11.341 4.725-3.029 3.047-4.694 7.097-4.694 11.405v93.833c0 8.894 7.194 16.127 16.035 16.127h499.13c8.842 0 16.035-7.233 16.035-16.127v-93.829c-0.01-8.894-7.2-16.13-16.04-16.13zm14.91 109.96c0 8.291-6.68 15.01-14.916 15.01h-499.12c-8.239 0-14.917-6.719-14.917-15.01v-93.829c0-8.293 6.678-15.014 14.917-15.014h499.13c8.236 0 14.916 6.721 14.916 15.014v93.829z" enable-background="new    " fill="#333"/>
<path opacity=".2" d="m519.64 5.535h-499.13c-8.239 0-14.917 6.72-14.917 15.012v93.833c0 8.292 6.678 15.011 14.917 15.011h499.13c8.236 0 14.916-6.719 14.916-15.011v-93.833c-0.01-8.292-6.69-15.012-14.92-15.012zm7.02 112.78c0 3.928-3.152 7.125-7.027 7.125h-499.12c-3.878 0-7.03-3.197-7.03-7.125v-97.773c0-3.929 3.152-7.126 7.03-7.126h4.402c2.271-2.202 5.361-3.563 8.772-3.563h472.77c3.416 0 6.506 1.361 8.771 3.563h4.406c3.875 0 7.027 3.197 7.027 7.126v97.775z" enable-background="new    " fill="#4D4D4D"/>
<path opacity=".4" enable-background="new    " d="m519.64 5.535h-499.13c-8.239 0-14.917 6.718-14.917 15.01v93.837c0 8.29 6.678 15.009 14.917 15.009h499.13c8.236 0 14.916-6.719 14.916-15.009v-93.835c-0.01-8.292-6.69-15.01-14.92-15.01zm8.99 111.88c0 5.016-4.037 9.094-8.998 9.094h-499.12c-4.964 0-9.001-4.078-9.001-9.094v-96.865c0-5.016 4.037-9.096 9.001-9.096h7.048c1.815-1.011 3.9-1.592 6.127-1.592h472.78c2.227 0 4.311 0.581 6.127 1.592h7.051c4.961 0 8.998 4.08 8.998 9.096v96.865h-0.01z"/>
<path opacity=".9" d="m519.64 5.535h-499.13c-8.235 0-14.917 6.718-14.917 15.01v93.837c0 8.29 6.678 15.009 14.917 15.009h499.13c8.236 0 14.916-6.719 14.916-15.009v-93.835c-0.01-8.292-6.68-15.01-14.92-15.01zm10.97 110.82c0 6.104-4.925 11.064-10.976 11.064h-499.12c-6.05 0-10.974-4.963-10.974-11.064v-95.815c0-6.102 4.924-11.066 10.974-11.066h499.13c6.049 0 10.976 4.965 10.976 11.066v95.813h-0.01z" enable-background="new    " fill="#333"/>
<path opacity=".5" d="m519.64 128.6h-499.13c-8.243 0-14.917-6.72-14.917-15.01v0.784c0 8.29 6.674 15.011 14.917 15.011h499.13c8.232 0 14.916-6.721 14.916-15.011v-0.784c-0.01 8.3-6.69 15.01-14.92 15.01z" enable-background="new    " fill="#fff"/>
</svg>
