<svg id="Livello_1" data-name="Livello 1" xmlns="http://www.w3.org/2000/svg" viewBox="0 0 25.23 12.21">
	<defs>
		<style>.cls-1{fill:#fff;}</style>
	</defs>
	<title>TastoInvio</title>
	<g id="tastieratastoInvio">
		<g id="Group_1851" data-name="Group 1851">
			<g id="Path_464" data-name="Path 464">
				<path id = "strokeColor00" d="M25.22,0V8.5a.5.5,0,0,1-.5.5H2.45L4.7,11.14a.49.49,0,0,1,0,.7.49.49,0,0,1-.37.16A.51.51,0,0,1,4,11.86L.48,8.5,4,5.14a.5.5,0,1,1,.69.72L2.45,8H24.22V1H8.73a.5.5,0,0,1-.5-.5.5.5,0,0,1,.5-.5Z"/>
			</g>
		</g>
	</g>
</svg>