<svg id="Livello_1" data-name="Livello 1" xmlns="http://www.w3.org/2000/svg" viewBox="0 0 18.74 17.13">
	<defs>
		<style>.cls-1{fill:#fff;}</style>
	</defs>
	<title>TastieraFrecciaDX</title>
	<g id="tastierafrecciaDX">
		<g id="Line_3001" data-name="Line 3001">
			<path id = "strokeColor00" d="M15.37,8.56l-4.06,3.61a.5.5,0,0,1-.33.12.46.46,0,0,1-.37-.17.48.48,0,0,1,0-.7L13.3,9.06H.5a.5.5,0,0,1-.5-.5.5.5,0,0,1,.5-.5H13.3L10.65,5.71a.48.48,0,0,1,0-.7.49.49,0,0,1,.7,0Z"/>
		</g>
		<g id="Line_3002" data-name="Line 3002">
			<path id = "strokeColor01" d="M18.74.5V16.63a.5.5,0,0,1-.5.5.5.5,0,0,1-.5-.5V.5a.5.5,0,0,1,.5-.5A.5.5,0,0,1,18.74.5Z"/>
		</g>
	</g>
</svg>