<?xml version="1.0" encoding="UTF-8" standalone="no"?>
<svg xmlns:rdf="http://www.w3.org/1999/02/22-rdf-syntax-ns#" xmlns="http://www.w3.org/2000/svg" xml:space="preserve" viewBox="0 0 47.969 26.652" height="26.652px" width="47.969px" version="1.1" enable-background="new 0 0 47.969 26.652" y="0px" x="0px" xmlns:cc="http://creativecommons.org/ns#" xmlns:xlink="http://www.w3.org/1999/xlink" xmlns:dc="http://purl.org/dc/elements/1.1/">
<defs>
<linearGradient id="linearGradient4186" y2="-18.698" gradientUnits="userSpaceOnUse" x2="104.71" gradientTransform="translate(-80.721 32.024)" y1="-5.3722" x1="104.71"><stop offset="0"/><stop stop-opacity="0" offset="1"/></linearGradient></defs>
<path id="bgColor00" fill="#f00" d="m10.676 18.656h26.656v2.664h-26.656v-2.664zm-5.348-6.664h3.998v4h-3.998v-4zm6.664 0h3.995v4h-3.995v-4zm6.662 0h3.998v4h-3.998v-4zm6.662 0h3.998v4h-3.998v-4zm6.664 0h3.995v4h-3.995v-4zm6.66 0h4v4h-4v-4zm-33.312-6.661h3.998v3.996h-3.998v-3.996zm6.664 0h3.995v3.996h-3.995v-3.996zm6.662 0h3.998v3.996h-3.998v-3.996zm6.662 0h3.998v3.996h-3.998v-3.996zm6.664 0h3.995v3.996h-3.995v-3.996zm6.66 0h4v3.996h-4v-3.996zm-38.64 21.321h47.969v-26.652h-47.969v26.652zm45.304-2.668h-42.641v-21.32h42.641v21.32z"/>
<path opacity=".45" d="m10.676 18.656h26.656v2.664h-26.656v-2.664zm-5.348-6.664h3.998v4h-3.998v-4zm6.664 0h3.995v4h-3.995v-4zm6.662 0h3.998v4h-3.998v-4zm6.662 0h3.998v4h-3.998v-4zm6.664 0h3.995v4h-3.995v-4zm6.66 0h4v4h-4v-4zm-33.312-6.661h3.998v3.996h-3.998v-3.996zm6.664 0h3.995v3.996h-3.995v-3.996zm6.662 0h3.998v3.996h-3.998v-3.996zm6.662 0h3.998v3.996h-3.998v-3.996zm6.664 0h3.995v3.996h-3.995v-3.996zm6.66 0h4v3.996h-4v-3.996zm-38.64 21.321h47.969v-26.652h-47.969v26.652zm45.304-2.668h-42.641v-21.32h42.641v21.32z" fill="url(#linearGradient4186)"/></svg>
