<?xml version="1.0" encoding="UTF-8" standalone="no"?>
<!-- Generator: Adobe Illustrator 12.0.0, SVG Export Plug-In . SVG Version: 6.00 Build 51448)  -->

<svg
   xmlns:dc="http://purl.org/dc/elements/1.1/"
   xmlns:cc="http://creativecommons.org/ns#"
   xmlns:rdf="http://www.w3.org/1999/02/22-rdf-syntax-ns#"
   xmlns:svg="http://www.w3.org/2000/svg"
   xmlns="http://www.w3.org/2000/svg"
   xmlns:sodipodi="http://sodipodi.sourceforge.net/DTD/sodipodi-0.dtd"
   xmlns:inkscape="http://www.inkscape.org/namespaces/inkscape"
   version="1.1"
   id="Livello_1"
   width="45.605"
   height="42.378"
   viewBox="0 0 45.605 42.378"
   overflow="visible"
   enable-background="new 0 0 45.605 42.378"
   xml:space="preserve"
   inkscape:version="0.47pre2 r22153"
   sodipodi:docname="IC_pl1_127.svg"><metadata
   id="metadata17693"><rdf:RDF><cc:Work
       rdf:about=""><dc:format>image/svg+xml</dc:format><dc:type
         rdf:resource="http://purl.org/dc/dcmitype/StillImage" /></cc:Work></rdf:RDF></metadata><defs
   id="defs17691"><inkscape:perspective
     sodipodi:type="inkscape:persp3d"
     inkscape:vp_x="0 : 21.188999 : 1"
     inkscape:vp_y="0 : 1000 : 0"
     inkscape:vp_z="45.605 : 21.188999 : 1"
     inkscape:persp3d-origin="22.8025 : 14.125999 : 1"
     id="perspective17695" /></defs><sodipodi:namedview
   pagecolor="#ffffff"
   bordercolor="#666666"
   borderopacity="1"
   objecttolerance="10"
   gridtolerance="10"
   guidetolerance="10"
   inkscape:pageopacity="0"
   inkscape:pageshadow="2"
   inkscape:window-width="1600"
   inkscape:window-height="1144"
   id="namedview17689"
   showgrid="false"
   inkscape:zoom="5.5689275"
   inkscape:cx="22.8025"
   inkscape:cy="21.188999"
   inkscape:window-x="-4"
   inkscape:window-y="-4"
   inkscape:window-maximized="1"
   inkscape:current-layer="Livello_1" />
<path
   d="m 33.119,37.006 c 0,1.482 -1.205,2.687 -2.684,2.687 H 5.373 c -1.482,0 -2.684,-1.204 -2.684,-2.687 V 10.614 C 2.689,9.135 3.89,7.932 5.373,7.932 H 27.957 C 28.963,7.057 30.012,6.176 31.1,5.291 30.881,5.264 30.662,5.244 30.436,5.244 H 5.373 C 2.406,5.244 0,7.651 0,10.614 v 26.393 c 0,2.968 2.406,5.372 5.373,5.372 h 25.063 c 2.963,0 5.369,-2.404 5.369,-5.372 V 18.666 c -0.912,1.195 -1.809,2.407 -2.686,3.64 v 14.7 z M 44.539,0 C 31.949,7.717 22.814,17.456 18.711,22.343 L 8.66,14.468 4.221,18.045 21.588,35.71 C 24.58,28.053 34.043,13.087 45.606,2.457 L 44.539,0 z"
   id="bgColor00"
   style="fill:#000000"
   inkscape:label="#iconcolor" />
</svg>