<?xml version="1.0" encoding="UTF-8" standalone="no"?>
<svg xmlns:rdf="http://www.w3.org/1999/02/22-rdf-syntax-ns#" xmlns="http://www.w3.org/2000/svg" xml:space="preserve" overflow="visible" height="54.939" viewBox="0 0 62.071 54.939" width="62.071" version="1.1" enable-background="new 0 0 62.071 54.939" xmlns:cc="http://creativecommons.org/ns#" xmlns:dc="http://purl.org/dc/elements/1.1/">
<path id="bgColor00" d="m61.692 51.185l-28.511-49.862c-0.493-0.877-1.133-1.323-2.147-1.323-1.008 0-1.65 0.446-2.145 1.323l-28.509 49.862c-0.939 1.597-0.09 3.746 2.041 3.755h57.229c2.126-0.009 2.982-2.159 2.042-3.755zm-53.912-1.692l23.256-40.586 23.25 40.586h-46.506zm26.43-5.975c0 1.838-1.492 3.332-3.332 3.332s-3.334-1.494-3.334-3.332c0-1.842 1.494-3.33 3.334-3.33s3.332 1.488 3.332 3.33zm-3.332-25.687c1.879 0 3.408 1.527 3.408 3.403 0 0.176-0.018 0.337-0.041 0.5l-0.006 0.054-1.59 15.303c0 0.979-0.793 1.77-1.771 1.77-0.982 0-1.775-0.791-1.775-1.77l-1.588-15.303-0.012-0.054c-0.018-0.163-0.031-0.324-0.031-0.5 0-1.877 1.525-3.403 3.406-3.403z"/>
</svg>
